# xmcd
#
# Track frame offsets:
#	150
#	12674
#	26151
#	38820
#	52434
#	67643
#	102144
#	116385
#	163551
#	182772
#	216241
#	234757
#	255680
#	269784
#	308035
#	322326
#	337055
#
# Disc length: 4684
#
# Revision: 1
# Processed by: cddbd v1.5.1PL0 Copyright (c) Steve Scherf et al.
# Submitted via: FreeRIP 2.35 
# Normalized: r0:DSETVAR1
#
DISCID=fb124a11
DTITLE=Various Artist - Mestres do Blues
DYEAR=2003
DGENRE=Blues
TTITLE0=The Yardbirds - Highway 49
TTITLE1=Eric Clpaton - Blues Before Sunrise
TTITLE2=Muddy Waters - I'm Your Hoochie-Coochie Man
TTITLE3=Bo Diddley - The Clock Strikes Twelve
TTITLE4=Eric Clapton - Sinner's Prayer
TTITLE5=B. B. King - Outside Help
TTITLE6=Bo Diddley - I'm A Man
TTITLE7=Albert King - Blues At Sunrise
TTITLE8=Eric Clapton - Take It Easy Baby (Live)
TTITLE9=Albert King - Stormy Monday
TTITLE10=The Doors - Roadhouse blues
TTITLE11=Lightnin' Hopkins - Mornig BLues
TTITLE12=Bo Diddley - Before You Acuse Me
TTITLE13=Albert King - I'm Gonna Call You As Soon As The Sun Goes Down
TTITLE14=Eric Clapton - Driftin'
TTITLE15=Buddy Guy - I Cry And Sing The Blues
TTITLE16=Muddy Waters - I Feel Like Going Home
EXTD=Brigade Records - ®
EXTT0=
EXTT1=
EXTT2=
EXTT3=
EXTT4=
EXTT5=
EXTT6=
EXTT7=
EXTT8=
EXTT9=
EXTT10=
EXTT11=
EXTT12=
EXTT13=
EXTT14=
EXTT15=
EXTT16=
PLAYORDER=
